<?xml version="1.0" encoding="UTF-8"?>
<svg id="Layer_2" xmlns="http://www.w3.org/2000/svg" version="1.1" viewBox="0 0 340 120">
  <!-- Generator: Adobe Illustrator 30.0.0, SVG Export Plug-In . SVG Version: 2.1.1 Build 123)  -->
  <defs>
    <style>
      .st0 {
        fill: #e9eef2;
      }
    </style>
  </defs>
  <g id="Layer_1-2">
    <g>
      <g>
        <polygon class="st0" points="41.99 48.43 26.9 2.65 15.45 2.65 41.99 48.43"/>
        <polygon class="st0" points="41.86 2.65 32.39 2.65 47.54 46.99 41.86 2.65"/>
        <polygon class="st0" points="69.95 50.64 102.42 8.38 102.42 2.65 93.3 2.65 69.95 50.64"/>
        <polygon class="st0" points="56.63 2.65 47.48 2.65 53.36 45.88 56.63 2.65"/>
        <path class="st0" d="M4.59,22.42v46.01c0,27.02,21.9,48.92,48.92,48.92h0c9.92,0,19.15-2.96,26.87-8.04L4.59,22.42Z"/>
        <polygon class="st0" points="61.74 2.65 59.09 45.97 70.84 2.65 61.74 2.65"/>
        <polygon class="st0" points="37.13 50.97 9.44 2.65 4.59 2.65 4.59 13.99 37.13 50.97"/>
        <path class="st0" d="M72.7,55.22c-3.03,4.15-5.77,7.42-7.03,12.51-1.67,6.72-.18,16.72,4.48,22.07l14.36,16.47c10.94-8.97,17.91-22.59,17.91-37.84V16.97c-9.86,12.76-20.24,25.26-29.73,38.25Z"/>
        <polygon class="st0" points="76.24 2.65 64.42 47.55 87.03 2.65 76.24 2.65"/>
      </g>
      <g>
        <path class="st0" d="M136.55,2.44v20.15c0,1.65.36,2.95,1.09,3.92.72.96,1.89,1.44,3.5,1.44s2.8-.48,3.57-1.44c.77-.96,1.16-2.27,1.16-3.92V2.44h11.13v20.15c0,3.4-.71,6.3-2.12,8.71s-3.34,4.22-5.79,5.43c-2.45,1.21-5.18,1.82-8.21,1.82s-5.7-.61-8.03-1.82-4.15-3.01-5.46-5.41-1.96-5.31-1.96-8.74V2.44h11.13-.01,0Z"/>
        <path class="st0" d="M195.72,38.2h-11.18l-11.83-17.98v17.98h-11.18V2.44h11.18l11.83,18.28V2.44h11.18v35.76Z"/>
        <path class="st0" d="M211.63,2.44v35.76h-11.18V2.44h11.18Z"/>
        <path class="st0" d="M244.37,2.44v8.89h-9.47v26.87h-11.18V11.33h-9.36V2.44h30.02,0Z"/>
        <path class="st0" d="M258.27,11.38v4.4h11.08v8.43h-11.08v5.05h12.59v8.94h-23.77V2.44h23.77v8.94h-12.59Z"/>
        <path class="st0" d="M299.43,4.71c2.8,1.52,4.96,3.62,6.47,6.31,1.51,2.7,2.27,5.76,2.27,9.2s-.76,6.47-2.27,9.2-3.67,4.87-6.47,6.44-6.07,2.35-9.8,2.35h-14.85V2.44h14.85c3.73,0,6.99.76,9.8,2.27ZM294.62,26.13c1.48-1.38,2.22-3.35,2.22-5.91s-.74-4.53-2.22-5.91c-1.48-1.38-3.47-2.07-5.99-2.07h-2.67v15.96h2.67c2.51,0,4.52-.69,5.99-2.07Z"/>
        <path class="st0" d="M150.8,41.94v8.89h-14v4.95h10.07v8.43h-10.07v13.48h-11.18v-35.76h25.18,0Z"/>
        <path class="st0" d="M162.41,75.68c-2.8-1.58-5.03-3.77-6.67-6.57-1.65-2.79-2.47-5.94-2.47-9.45s.82-6.65,2.47-9.45c1.65-2.79,3.87-4.98,6.67-6.54,2.8-1.56,5.89-2.35,9.24-2.35s6.43.78,9.22,2.35,5,3.75,6.62,6.54c1.63,2.8,2.44,5.95,2.44,9.45s-.82,6.65-2.44,9.45c-1.63,2.8-3.84,4.98-6.65,6.57-2.8,1.58-5.87,2.37-9.19,2.37s-6.44-.79-9.24-2.37h0ZM176.78,65.45c1.21-1.43,1.81-3.36,1.81-5.78s-.61-4.4-1.81-5.83c-1.21-1.43-2.92-2.14-5.14-2.14s-3.98.71-5.18,2.14c-1.21,1.43-1.81,3.38-1.81,5.83s.61,4.36,1.81,5.78c1.21,1.43,2.94,2.14,5.18,2.14s3.93-.71,5.14-2.14Z"/>
        <path class="st0" d="M201.79,75.68c-2.8-1.58-5.03-3.77-6.67-6.57-1.65-2.79-2.47-5.94-2.47-9.45s.82-6.65,2.47-9.45c1.65-2.79,3.87-4.98,6.67-6.54s5.89-2.35,9.24-2.35,6.43.78,9.22,2.35,5,3.75,6.62,6.54c1.63,2.8,2.44,5.95,2.44,9.45s-.82,6.65-2.44,9.45c-1.63,2.8-3.84,4.98-6.65,6.57-2.8,1.58-5.87,2.37-9.19,2.37s-6.44-.79-9.24-2.37h0ZM216.16,65.45c1.21-1.43,1.81-3.36,1.81-5.78s-.61-4.4-1.81-5.83-2.92-2.14-5.14-2.14-3.98.71-5.18,2.14-1.81,3.38-1.81,5.83.61,4.36,1.81,5.78,2.94,2.14,5.18,2.14,3.93-.71,5.14-2.14Z"/>
        <path class="st0" d="M257.69,44.21c2.8,1.52,4.96,3.62,6.47,6.31,1.51,2.7,2.27,5.76,2.27,9.2s-.76,6.47-2.27,9.2c-1.51,2.73-3.67,4.87-6.47,6.44-2.8,1.56-6.07,2.35-9.8,2.35h-14.85v-35.76h14.85c3.73,0,6.99.76,9.8,2.27ZM252.87,65.63c1.48-1.38,2.22-3.35,2.22-5.91s-.74-4.53-2.22-5.91c-1.48-1.38-3.47-2.07-5.99-2.07h-2.67v15.96h2.67c2.51,0,4.52-.69,5.99-2.07Z"/>
        <path class="st0" d="M154.5,101.98c1.19,1.56,1.79,3.38,1.79,5.43,0,3.13-1.03,5.55-3.09,7.25s-5.03,2.55-8.89,2.55h-18.68v-35.76h18.18c3.63,0,6.48.79,8.56,2.37s3.12,3.89,3.12,6.92c0,2.09-.55,3.85-1.64,5.28s-2.54,2.38-4.36,2.85c2.15.51,3.82,1.54,5.01,3.11h0ZM136.8,95.38h4.33c1,0,1.75-.2,2.24-.61.49-.4.73-1.02.73-1.87s-.24-1.52-.73-1.94c-.49-.42-1.23-.63-2.24-.63h-4.33v5.05ZM144.13,107.63c.49-.38.73-1.02.73-1.89,0-1.72-.99-2.58-2.97-2.58h-5.08v5.05h5.08c1,0,1.75-.2,2.24-.58h0Z"/>
        <path class="st0" d="M177.69,117.21l-6.69-12.83h-.05v12.83h-11.18v-35.76h16.62c2.89,0,5.35.51,7.4,1.54,2.05,1.02,3.58,2.43,4.61,4.19,1.02,1.77,1.54,3.76,1.54,5.99,0,2.39-.66,4.51-1.99,6.36s-3.23,3.18-5.72,3.99l7.75,13.69h-12.3,0ZM170.94,96.9h4.43c1.07,0,1.88-.24,2.42-.73.53-.49.8-1.25.8-2.3,0-.94-.28-1.69-.83-2.22s-1.36-.81-2.39-.81h-4.43v6.06h0Z"/>
        <path class="st0" d="M216.06,111.8h-11.89l-1.76,5.41h-11.73l13.05-35.76h12.89l12.99,35.76h-11.79l-1.76-5.41h0ZM213.34,103.37l-3.22-9.95-3.22,9.95h6.45Z"/>
        <path class="st0" d="M266.02,117.21h-11.18l-11.83-17.98v17.98h-11.18v-35.76h11.18l11.83,18.28v-18.28h11.18v35.76Z"/>
        <path class="st0" d="M295.4,83.71c2.8,1.52,4.96,3.62,6.47,6.31,1.51,2.7,2.27,5.76,2.27,9.2s-.76,6.47-2.27,9.2-3.67,4.87-6.47,6.44c-2.8,1.56-6.07,2.35-9.8,2.35h-14.85v-35.76h14.85c3.73,0,6.99.76,9.8,2.27ZM290.6,105.13c1.48-1.38,2.22-3.35,2.22-5.91s-.74-4.53-2.22-5.91c-1.48-1.38-3.47-2.07-5.99-2.07h-2.67v15.96h2.67c2.51,0,4.52-.69,5.99-2.07h0Z"/>
        <path class="st0" d="M311.27,114.55c-2.77-2-4.27-4.94-4.5-8.81h11.89c.17,2.06,1.07,3.08,2.72,3.08.61,0,1.11-.14,1.54-.43.42-.28.63-.73.63-1.33,0-.84-.45-1.52-1.36-2.04-.9-.52-2.32-1.12-4.23-1.79-2.29-.81-4.17-1.6-5.66-2.37-1.5-.78-2.78-1.9-3.85-3.38-1.08-1.48-1.6-3.38-1.56-5.71,0-2.33.59-4.3,1.79-5.93,1.19-1.63,2.82-2.87,4.88-3.71s4.39-1.26,6.98-1.26c4.36,0,7.83,1.01,10.4,3.03,2.57,2.02,3.92,4.87,4.05,8.54h-12.03c-.03-1.01-.28-1.73-.76-2.17-.47-.44-1.04-.65-1.71-.65-.47,0-.86.16-1.16.48s-.45.77-.45,1.33c0,.81.44,1.48,1.33,2s2.31,1.15,4.25,1.89c2.25.84,4.11,1.65,5.56,2.43,1.46.78,2.72,1.85,3.8,3.23,1.07,1.38,1.61,3.11,1.61,5.2s-.54,4.15-1.61,5.89c-1.07,1.73-2.64,3.09-4.69,4.07s-4.48,1.46-7.3,1.46c-4.26,0-7.78-1-10.55-3.01h0Z"/>
      </g>
    </g>
  </g>
</svg>